<?xml version="1.0" encoding="UTF-8"?>
<!DOCTYPE svg PUBLIC "-//W3C//DTD SVG 1.1//EN" "http://www.w3.org/Graphics/SVG/1.1/DTD/svg11.dtd">
<!-- Creator: CorelDRAW 2019 (64-Bit) -->
<svg xmlns="http://www.w3.org/2000/svg" xml:space="preserve" width="154.154mm" height="131.791mm" version="1.1" style="shape-rendering:geometricPrecision; text-rendering:geometricPrecision; image-rendering:optimizeQuality; fill-rule:evenodd; clip-rule:evenodd"
viewBox="0 0 16563.04 14160.29"
 xmlns:xlink="http://www.w3.org/1999/xlink"
 xmlns:xodm="http://www.corel.com/coreldraw/odm/2003">
 <defs>
  <style type="text/css">
   <![CDATA[
    .str2 {stroke:#373435;stroke-width:56.86;stroke-miterlimit:22.9256}
    .str1 {stroke:black;stroke-width:56.86;stroke-miterlimit:22.9256}
    .str3 {stroke:#373435;stroke-width:37.91;stroke-miterlimit:22.9256}
    .str0 {stroke:#606062;stroke-width:379.04;stroke-miterlimit:22.9256}
    .fil0 {fill:none}
    .fil2 {fill:#606062}
    .fil1 {fill:#F58634}
    .fil3 {fill:#707070}
    .fil4 {fill:#828282}
   ]]>
  </style>
 </defs>
 <g id="Capa_x0020_1">
  <metadata id="CorelCorpID_0Corel-Layer"/>
  <path class="fil0 str0" d="M3268.81 10487.3c30.32,2619.19 2289.42,2082.83 3695.67,2149.17"/>
  <path class="fil1 str1" d="M4463.22 9901.24l-2387.97 0c-492.81,0 -958.69,-1298.93 -1075.76,-1653.34 -231.57,-701.01 -402.5,-1449.42 -402.5,-2364.51l0 -4358.98c0,-386.69 578.48,-472.83 1015.46,-576.52 886.44,-210.32 1850.15,-241.15 2773.49,-110.14 104.3,-205.45 238.93,-392.84 397.9,-556.49 -524.57,-78.71 -1054.86,-118.03 -1388.78,-155.06l-1051.37 74.69c-447.27,50.65 -1518.89,261.38 -1869.18,480.88 -206.48,129.37 -446.09,412.11 -446.09,728.94l0 4813.83c0,1339.41 530.11,2734.99 1167.02,3760.52 199.1,320.57 597.7,560.56 1107.23,560.56l1933.11 0c372.6,0 635.97,-74.63 856.95,-242.28 807.43,-612.52 1497.62,-2967.95 1493.23,-4154.49 -2.49,-671.05 0.86,-1343.28 7.01,-2015.68 -58.72,4.54 -118.05,6.89 -177.94,6.89 -135.69,0 -268.58,-11.94 -397.74,-34.72l0 1740.16c0,886.22 -178.86,1746.2 -412.08,2392.82 -57.59,159.66 -127.85,339.18 -194.96,487.33l-478.3 924.15c-91.21,148.27 -245.68,251.45 -468.73,251.45z"/>
  <path class="fil2" d="M8466.31 11939.63c1.93,-165.07 38.14,-514.18 51.94,-705.75 2.25,-31.15 4.35,-59.86 7.38,-91.21l20.12 -262.98c9.32,-101.22 15.78,-228.44 23.28,-339.37l105.33 -1403.62c381.25,20.34 816.27,1.76 1203.43,1.76 151.43,0 205.31,-7.74 345.66,36.76l40.62 13.59c2.45,0.9 5.21,1.94 7.62,2.87 497.78,191.03 606.48,634.9 809.82,1133.24 30.35,74.38 320.93,864.86 321.31,866.15l-414.79 -473.42c-45.25,20.56 -138.59,99.5 -183.8,111.13l-110.18 -153.49 -167.21 116.84c21.71,61.01 81.62,101.59 98.08,167.62 -43.46,18.16 -116.36,73.4 -159.17,94.35 21.33,62.83 135.55,237 177.2,312.34 69.42,125.59 512.53,860.4 524.46,908.66l-854.49 -2.8c-43.93,-234.47 -70.06,-626.65 -166.17,-787.07l-16.65 -26.45c-184.44,-258.21 -433.74,-136.44 -702.55,-173.32 -3.89,-102.37 -18.04,-211.17 -36.92,-311.24 -9.73,-51.55 -21.79,-95.37 -34.9,-145.1l-37.3 -115.14c-31.47,-76.15 -75.06,-147.51 -197.04,-164.32 -85.7,-11.82 -257.11,-30.71 -295.04,54.66 -14.98,33.68 39.19,1187.99 53.51,1299.74l984.55 516.32c18.39,10.62 11.8,7.31 25.43,14.45l178.14 92.74c40.4,19.88 74.61,39.2 118.64,63.09 59.01,32.02 68.99,22.43 154.36,21.66 238.24,-2.17 481.94,6.4 719.18,-1.41l-107.74 220.39c-144.14,0 -288.29,0 -432.42,0 -102.79,0 -311.2,18.49 -389.66,-24.09 -173.28,-94.05 -372.6,-198.41 -555.08,-291.67 -162.77,-83.19 -381.85,-195.78 -552.62,-287.76l-556.33 -288.16zm4032.95 -2880.54c57.01,15.87 303.62,106.04 328.7,142.54l0.2 98.3 -327.26 -126.88 -1.64 -113.96zm4.8 -284.3c52.81,21.84 106.88,42.87 166.02,66.29 186.17,73.76 157.79,39.74 158.06,174.62l-328.03 -128.28 3.94 -112.63zm0 -284.26c11.86,4.85 26.43,9.85 39.56,15.4l210.17 83.22c11.11,4.18 36.93,12.25 45.87,17.11 38.78,21.1 28.28,25.07 28.55,125.04l-329.11 -128 4.96 -112.76zm-5626.73 3972.12l0 300.04c39.91,113.61 -19.91,469.36 196.96,805.93l185.59 -4.89c12.28,-180.65 -28.16,-262.95 82.2,-496.6l90.17 -141.9c219.36,-285.55 567.22,-426.36 927.48,-328.59 2.98,0.81 5.6,1.55 8.54,2.37 2.92,0.81 5.55,1.57 8.46,2.4 26.91,7.64 6.25,1.38 25.2,7.25 5.88,1.83 24.24,8.11 38.72,13.74 71.01,27.66 96.84,34.4 163.49,79.48l65.63 44.78c41.84,28.96 92.7,77.47 123.09,114.15 65.33,78.91 128.05,163.2 174.78,294.1 74.95,210.03 33.56,272.54 48.53,419.41 104.05,-28.02 773.24,-7.34 935.34,-7.28 303.24,0.11 627.51,10.63 926.77,-0.92l1.46 184.25 375.47 0.02c-51.58,-172.05 -94.56,-270.36 -68.51,-493.09 21.28,-181.89 96.89,-337.25 182.74,-447.53 78.48,-100.83 198.98,-224.7 342.24,-289.1 130.61,-58.71 150.85,-71.12 316.66,-93.09 89.67,-11.88 187,-6.9 270.04,8.4l94.86 21.9c2.54,0.72 5.34,1.49 7.85,2.21l107.35 37.9c254.05,101.88 451.26,334.5 531.79,588.13 69.21,217.98 39.65,295.41 28.32,488.21 53.12,-14.42 166.72,-15.56 222.55,0l4.23 -1404.88 -283.21 1.78 2.85 -1145.99 610.51 -1.85 0.27 73.25 2937.3 0 0 -577.72 -2934.83 0.19 -4.93 132.89c-130.73,-43.97 -206.34,-99.39 -254.09,-241.91 -6.19,-18.49 -10.84,-35.56 -14.73,-52.38 -37.3,-161.48 -25.79,-1467.76 -18.7,-1655.2l-323.32 0.81 0.91 -543.95 -802.32 5 -0.18 300.29c2.29,1.91 5.48,4.06 7.24,5.22l36.55 21.04c2.36,1.04 5.1,2.08 7.48,3.03l41.59 12.83 -1.1 898.26 102.55 49.7 0.08 2625.04 -267.18 -0.78c-16.41,-50.22 -276.72,-312.07 -301.45,-378.82l-338.84 -1007.84c-0.9,-2.6 -1.86,-5.32 -2.78,-7.95l-271.59 -733.39c-9.41,-23.7 -19.52,-49.7 -28.88,-74.62l-125.59 -293.82c-187.98,-415.4 -552.42,-769.21 -1033.08,-784.09 -592.41,-18.35 -1203.44,20.63 -1794.8,-1.72l1.43 340.36 139.43 1.22 -135.99 1801.59 -825.23 4.92 -171.17 261.93c-151.97,265.01 -119.34,210.83 -230.72,490.16l366.83 0.83 -0.73 219.43 -432.58 3.51 -46.88 271.53 369.45 2.79 -0.97 216.43 -390.04 -0.38 -6.54 51.55z"/>
  <path class="fil2" d="M14043.87 7645.1c326.96,8.6 664.5,0.86 992.62,0.86 462.69,0 285.29,-31 580.53,158.5l110.32 74.59c18.09,13.85 8.71,6.79 18.81,16.48 1.55,1.48 4.9,8.96 6.02,7.01 1.14,-2 4.28,4.7 5.9,6.76l-1716.01 0.64 1.82 -264.84zm2064.01 69.62c-42.46,-21.98 -62.19,-42.91 -98.01,-68.14l97.96 0.4 0.05 67.74zm-2066.68 -474.53c227.63,9.41 517.59,-19.64 732.42,1.48 40.49,3.98 86.22,39.14 119.92,61.83l298.27 207.81c1.78,1.73 4.53,5.03 5.97,6.51l-1156.18 15.54 -0.4 -293.17zm1869.12 291.65c-89.82,0 -97.7,-17.45 -150.11,-51.73l-224.39 -155.02c-58.18,-40.47 -68.49,-37.13 -113.37,-83.53l686.28 1.72 0.05 286.71 -198.47 1.86zm-1868.05 -667.42c174.83,4.93 182.13,-31.8 309.66,67.84 64.95,50.75 243.79,161.49 272.25,193.71l-581.44 2.4 -0.47 -263.95zm2067.8 1.62l-3.22 259.89 -554.48 0.12c-317.11,0.02 -262.13,27.54 -440.44,-92.22 -70.22,-47.17 -166.37,-125.09 -236.93,-156.65l1235.07 -11.13zm-2.19 -116.64c-216.04,15.09 -967.65,1.03 -1261.06,1.39 -132.1,0.16 -119.07,18.56 -210.54,-44.26l-294.79 -209.82c581.79,3.31 1190.34,-6.89 1766.84,1.7l-0.45 250.99zm283.47 -537.71l-2634.66 0c0,209.16 -14.41,1936.81 9.12,1977.12 19.34,19.54 1267.75,6.99 1302.27,6.99 314.28,0 1058.78,14.3 1319.53,-1.31l3.74 -1982.8z"/>
  <path class="fil2" d="M14041.15 9817.06c76.12,-15.04 1031.5,-4.28 1226.95,-4.81 149.84,-0.43 111.27,-6.37 201.88,55.39 66.08,45.05 81.66,50.24 150.24,100.5 34.5,25.29 119.18,71.29 140.98,103.82l-1609.14 0.08c-31.59,0.24 -79,5.32 -105.97,-8.67l-4.93 -246.31zm1968.71 0l100.01 -5.3 -0.62 66.45c-41.66,-18.06 -58.77,-39.02 -99.39,-61.16zm-1966.3 -408.16l698.15 -3.74c106.48,-0.09 120.38,48.55 245.43,129.78 46.37,30.12 193.58,122.36 223.53,158.47l-1142.83 0.81c-38.56,-7.07 -27.4,-0.6 -26.46,-124.06 0.4,-51.57 -1.64,-110.89 2.19,-161.26zm1550.9 -3.74l512.37 -1.05 0.82 288.88 -197.34 0.48c-109.85,-0.03 -113.82,-19.66 -255.28,-121.32l-232.59 -156.39c16.71,-9.15 -6.4,-5.25 36.88,-11.39l135.14 0.78zm-1552.29 -224.58l-1.04 -150.64c303.6,0 208.3,-0.28 519.02,210.59l62.19 48.58 -581.41 0 1.24 -108.53zm835.61 -148.17c219.82,-13.23 967.82,-4.46 1232.09,-2.11l-0.67 257.77 -830.58 1.03c-56.82,-0.01 -140.59,-74.8 -206.08,-118.73 -26.88,-18.03 -170.81,-112.72 -194.77,-137.97zm-801.95 -125.56c-21.41,12.42 -22.34,18.68 -36.61,-10.53 19.87,-12.31 12.66,-15.67 36.61,10.53zm655.34 4.61c-60.22,0 -145.07,-79.22 -201.82,-118.53 -40.41,-27.99 -49.44,-32.84 -94.85,-62.74 -37.51,-24.7 -58.22,-30.33 -88.01,-69.74l1762.72 2.04 0.67 248.62 -1378.7 0.35zm1657.36 -534.51c-105.8,19.89 -1708.93,5.93 -1962.68,5.93 -189.24,0 -488.7,17.74 -664.49,-3.41l2.34 1972.79 2623.44 0.35 1.39 -1975.67z"/>
  <path class="fil2" d="M12171.34 12965.01c481.57,52.53 499.33,748.43 21.75,815.24 -476.34,66.65 -633.9,-571.05 -266.67,-760.59 9.28,-4.8 20.06,-9.24 36.95,-17.17 93.91,-44.04 66.71,-19.81 116.33,-28.24l91.64 -9.24zm-132.1 1195.28l167.87 0c89.43,-37.86 99.37,6.62 294,-92.43 360.62,-183.52 507.27,-619.95 368.51,-970.39 -43.57,-110.02 -100.7,-206.09 -185.1,-285.66 -711.54,-670.8 -1796.87,275.77 -1139.13,1085.66 39.94,49.16 113.08,105.94 164.76,139.47l19.93 12.89c2.1,1.31 4.68,2.93 6.78,4.22 57.7,35.22 148.83,72.57 223.87,86.92 28.76,5.5 55.45,8.02 78.5,19.32z"/>
  <path class="fil2" d="M8522.2 13497.03c-74.89,523.3 -843.79,404.81 -771.3,-104.89 16.45,-115.7 76.44,-186.31 139.59,-239.53 126.46,-106.53 301.21,-119.26 441.86,-36.41 51.32,30.22 73.13,52.61 108.82,95.81 49.2,59.57 98.04,166.14 81.04,285.02zm-473.07 663.27l172.57 0c47.28,-22.75 122.42,-9.95 262.75,-87.17 75.34,-41.46 133.32,-97.74 188.5,-159.56 56,-62.7 60.08,-59.61 105.61,-157.8 8.2,-17.66 19.59,-46.33 24.45,-59.77 62.67,-173.06 61.62,-389.83 -30.64,-565.78 -78.43,-149.6 -201.55,-267.96 -360.4,-336.13 -80.04,-34.34 -188.64,-57.15 -280.61,-55.84 -511.04,7.26 -833.54,519.74 -657.32,972.96 28.69,73.79 87.43,167.65 128.43,208.81 236.15,237.08 310.01,174.93 446.67,240.29z"/>
  <path class="fil2" d="M10167.77 10670.74c13.18,61.4 48.84,77.56 96.52,162.56 39.24,-13.03 99.05,-59.88 143.92,-90.8l212.16 -145.3c57.96,-36.16 163.51,-97.27 208.84,-140.85l-82.07 -154.28c-1.33,-1.49 -4.08,-4.22 -6.05,-6.4l-573.33 375.07z"/>
  <path class="fil3" d="M13761.37 8379.47c175.79,21.15 475.25,3.41 664.49,3.41 253.74,0 1856.88,13.96 1962.68,-5.93l-1.39 1975.67 -2623.44 -0.35 -2.34 -1972.79zm2627.17 -2.52c-72.78,-16.88 -1747.73,-5.49 -1973.2,-5.11 -108.79,0.19 -217.59,-0.08 -326.37,0.01l-320.51 4.91c-1.67,0.41 -4.78,1.7 -7.09,2.72l-9.17 485.26c4.1,283.24 -12.65,1328.58 3.32,1499l2637.16 -0.01c13.15,-87.9 6.15,-1300.72 4.46,-1488.46 -0.39,-42.56 12.55,-461.07 -8.61,-498.32z"/>
  <g id="_1472484672">
   <path class="fil1 str1" d="M4493.16 1693.49l0 286.3c17.48,40.25 31.58,292.41 127.72,527.64 96.17,235.3 209.87,408.66 384.88,589.41 423.85,437.78 1046.17,647.49 1677.01,520.03 69.68,-14.08 64.16,-24.11 105.31,18.74l569.45 558.32c69.86,-26.29 132.15,-144.37 226.6,-186.45 -17.2,-42.22 3.94,-15.16 -36.91,-45.69 -45.67,-34.11 -50.19,-29.14 -93.64,-86.5 -213.77,-282.23 -248.75,-623.54 -48.91,-922.13 68.58,-102.48 153.33,-161.54 246.29,-246.33 88.01,-80.27 164.57,-159.15 249.19,-243.22 131.74,-130.92 192.14,-153.5 217.07,-273.47 138.56,-666.61 -123.94,-1330.48 -633.44,-1752.36 -284.34,-235.44 -662.62,-385.54 -1059.18,-407.78 -205.91,-11.54 -693.28,40.4 -827.19,152.26 27.75,43.24 344.32,344.39 408.26,407.27 139.07,136.75 272.32,266.36 410.54,403.52 122.26,121.31 278.65,244 325.35,486.91 88.62,460.91 -319.92,874.15 -797.84,770.53 -242.79,-52.64 -357.2,-210.35 -482.49,-332.82l-613.66 -602.42c-57.97,-57.67 -140.17,-151.18 -203.36,-198.78 -35.2,94.35 -64.72,167.17 -92.86,270.28 -20.26,74.28 -36.32,256.77 -58.17,306.74z"/>
   <path class="fil1 str1" d="M12734.49 2914.8c-40.51,-86.87 -4.1,-105.46 -119.7,-250.82l-1298.59 -1284.58 -1084.25 1063.34c-383.46,-18.75 -808.07,-2.42 -1196,-2.42 -137.65,0 -468.48,-15.42 -577.85,19.54 -191.64,61.28 -418.23,373.37 -638.86,546.27 -101.03,79.17 -211.16,183.56 -208.4,382.43 5.39,388.07 451.97,517.53 680.78,341.07 54.42,-41.97 110.41,-97.59 159.57,-142.14 54.14,-49.08 97.17,-94.21 149.85,-141.54 34,-30.54 128.41,-132.93 157.64,-145.08 35.65,-14.83 827.36,-10.93 881.19,-7.68 58.45,3.52 63.6,24.23 97.68,56.9 26.56,25.46 45.75,48.02 74.8,75.72l747.89 729.76c102.65,101.21 194.27,199.12 295.83,297.1l299.94 288.7 824.28 -810.73c158.63,-158.05 480.47,-465.84 619.58,-616.57 115.85,-125.54 93.65,-185.62 134.62,-268.6l0 -130.67z"/>
   <path class="fil1 str1" d="M9146.49 3626.68c-79.57,0 -226.37,-19.72 -275.96,18.68l-295.08 277.65c-31.54,28.04 -141.83,107.69 -156,133.63 59.09,39.54 121.28,119.46 164.06,196.54 273.45,8.19 382.33,11.77 557.56,165.6 114.7,100.68 219.41,243.35 242.47,470.59 76.7,39.5 139.7,58.62 198.7,103.16 194.94,147.15 273.88,334.97 279.34,606.91 44.31,35.04 92.8,64.05 132.35,97.44 214.92,181.5 290.9,558 145.31,825.32 -58.97,108.27 -123.77,165.59 -184.44,249.32 103.08,98.41 198.85,198.69 303.9,298.62 102.89,97.88 190.19,200.88 309.76,292.97 230.81,177.77 628.4,233.8 942.32,97.89 587.84,-254.5 771.66,-1046.75 270.37,-1541.36l-906.31 -892.91c-390.77,-392.46 -803.88,-811.66 -1200.2,-1191.61 -79.42,-76.14 -180.97,-204.79 -245.9,-208.73l-282.26 0.29z"/>
   <path class="fil1 str1" d="M8291.37 5843.46c9.29,-10.11 -2.08,-5.81 24.34,-21.18 15.91,-9.26 14.11,-5.52 25.53,-7.85 0.2,34.1 -9.18,46.57 -31.77,65.2 -23.35,91.75 -75.96,130.98 -51.77,267.2 16.42,92.45 69.71,172.36 118.64,212.66 216.34,178.21 411.37,26 501.77,2.33 -34.63,121.5 -115.03,170.68 -74.13,344.76 53.57,228.01 323.31,350.34 537.04,223.16 93.89,-55.86 227.72,-239.97 309.66,-333.34 32.45,-36.97 63.98,-76.43 97.55,-113.82 175.99,-196.1 170.23,-442.4 -28,-572.52 -157.14,-103.15 -257.94,-40.98 -346.32,-55.73 11.23,-5.29 65.51,-74.37 81.67,-96.84 157.5,-219.12 26.53,-521.2 -235.12,-563.25 -148.02,-23.79 -190.93,38.82 -301.63,54.57 15.5,-38.34 63.1,-95.27 87.88,-140.72 30.35,-55.71 45.51,-118.46 40.43,-192.35 -17.11,-248.5 -304.24,-419.07 -538.05,-285.33 -54.55,31.2 -86.9,68.64 -125.46,105.6l-86.21 84.69c-6.26,6.25 -8.28,8.25 -14.96,15.04 -0.98,1 -4.13,6.68 -4.82,5.07 -0.7,-1.61 -3.5,6.96 -7.94,6.6l-6 -14.73c45.54,-92.75 87.83,-261.67 41.53,-382.3 -40.42,-105.34 -123.98,-186.28 -243.75,-217.78 -259.29,-68.2 -388.86,131.81 -582.24,322.74 -165.99,163.89 -388.39,315.82 -286.43,585.74 40.82,108.08 123.51,185.17 245.51,217.45 153.62,40.64 248.95,-33.06 358.95,-77.29 -16.75,79.49 -80.14,128.01 -86.01,248.07 -9.32,190.12 132.37,350.89 309.22,373.79 139.57,18.06 173.9,-32.2 270.9,-59.64z"/>
   <path class="fil4 str2" d="M8291.37 5843.46l37.77 -16.4c-4.43,30.64 -1.97,20.95 -19.67,52.56 22.6,-18.63 31.98,-31.09 31.77,-65.2 -11.42,2.33 -9.62,-1.41 -25.53,7.85 -26.42,15.36 -15.04,11.07 -24.34,21.18z"/>
  </g>
  <polygon class="fil1 str3" points="1954.68,5314.83 3036.85,5314.83 2468.28,7134.23 4666.72,4518.84 3171.4,4518.84 3960.39,3161.17 2750.67,3154.28 "/>
 </g>
</svg>
